<svg xmlns="http://www.w3.org/2000/svg" width="26" height="26" viewBox="0 0 26 26">
  <path fill="#FFF" d="M13,1.24 C16.2030769,1.24 16.6,1.24923077 17.8646154,1.27692308 C18.8429431,1.29815881 19.8105542,1.48543839 20.7261538,1.83076923 C21.505446,2.14027473 22.2079059,2.61593144 22.7846154,3.22461538 C23.3878253,3.82368645 23.8511823,4.54866689 24.1415385,5.34769231 C24.4868693,6.26329191 24.6741489,7.23090308 24.6953846,8.20923077 C24.7692308,9.40923077 24.7692308,9.80615385 24.7692308,13.0092308 C24.7692308,16.2123077 24.7507692,16.6092308 24.7046154,17.8553846 C24.6833797,18.8337123 24.4961001,19.8013235 24.1507692,20.7169231 C23.5392365,22.2930172 22.2930172,23.5392365 20.7169231,24.1507692 C19.8013235,24.4961001 18.8337123,24.6833797 17.8553846,24.7046154 C16.6,24.7784615 16.2030769,24.7784615 13,24.7784615 C9.79692308,24.7784615 9.4,24.76 8.15384615,24.7230769 C7.17551846,24.7018412 6.2079073,24.5145616 5.29230769,24.1692308 C4.50725288,23.8647861 3.79835464,23.3921873 3.21538462,22.7846154 C2.62225823,22.2006715 2.16250815,21.4953015 1.86769231,20.7169231 C1.52236147,19.8013235 1.33508189,18.8337123 1.31384615,17.8553846 C1.24,16.6 1.24,16.1938462 1.24,13 C1.24,9.80615385 1.24923077,9.4 1.27692308,8.14461538 C1.29815881,7.16628769 1.48543839,6.19867653 1.83076923,5.28307692 C2.1340252,4.494716 2.6066939,3.78256182 3.21538462,3.19692308 C3.80022934,2.60712687 4.50553209,2.15056929 5.28307692,1.85846154 C6.19867653,1.5131307 7.16628769,1.32585112 8.14461538,1.30461538 C9.4,1.24 9.80615385,1.24 13,1.24 Z M13,3.35384615 L13,3.36307692 L8.23692308,3.36307692 C7.48980119,3.37204927 6.74978647,3.50943597 6.04923077,3.76923077 C5.53340387,3.97123505 5.06964201,4.28671932 4.69230769,4.69230769 C4.28326277,5.07759224 3.96755307,5.55115679 3.76923077,6.07692308 C3.51029758,6.77451661 3.3729217,7.51135087 3.36307692,8.25538462 C3.30769231,9.49230769 3.30769231,9.86153846 3.30769231,13 C3.30769231,16.1384615 3.30769231,16.5261538 3.36307692,17.7630769 C3.37186584,18.5102168 3.50925831,19.2502626 3.76923077,19.9507692 C3.97123505,20.4665961 4.28671932,20.930358 4.69230769,21.3076923 C5.12510141,21.6970522 5.64382929,21.9785569 6.20615385,22.1292308 C6.90670954,22.3890256 7.64672426,22.5264123 8.39384615,22.5353846 C9.64923077,22.5907692 10.0184615,22.5907692 13.1569231,22.5907692 C16.2953846,22.5907692 16.6646154,22.5815385 17.8646154,22.5261538 C18.6143026,22.5211975 19.3575131,22.38692 20.0615385,22.1292308 C21.0775117,21.7333728 21.8810651,20.9298194 22.2769231,19.9138462 C22.5461594,19.2056802 22.6898498,18.4559908 22.7015385,17.6984615 L22.7015385,12.9907692 C22.7015385,9.85230769 22.6923077,9.47384615 22.6369231,8.23692308 C22.6279507,7.48980119 22.490564,6.74978647 22.2307692,6.04923077 C22.0287649,5.53340387 21.7132807,5.06964201 21.3076923,4.69230769 C20.9220792,4.30560563 20.4554874,4.0092568 19.9415385,3.82461538 C19.2409828,3.56482058 18.500968,3.42743388 17.7538462,3.41846154 C16.5076923,3.35384615 16.1384615,3.35384615 13,3.35384615 Z M13,6.95384615 C14.6035397,6.95384615 16.1414026,7.59084982 17.2752764,8.72472362 C18.4091502,9.85859741 19.0461538,11.3964603 19.0461538,13 C19.0461538,16.3391986 16.3391986,19.0461538 13,19.0461538 C9.66080144,19.0461538 6.95384615,16.3391986 6.95384615,13 C6.95384615,9.66080144 9.66080144,6.95384615 13,6.95384615 Z M13,16.9230769 C14.0404647,16.9230769 15.0383147,16.5097539 15.7740343,15.7740343 C16.5097539,15.0383147 16.9230769,14.0404647 16.9230769,13 C16.9230769,10.8333444 15.1666556,9.07692308 13,9.07692308 C10.8333444,9.07692308 9.07692308,10.8333444 9.07692308,13 C9.07692308,15.1666556 10.8333444,16.9230769 13,16.9230769 Z M19.2861538,8.12615385 C18.5061578,8.12615385 17.8738462,7.49384215 17.8738462,6.71384615 C17.8738462,5.93385015 18.5061578,5.30153846 19.2861538,5.30153846 C20.0661498,5.30153846 20.6984615,5.93385015 20.6984615,6.71384615 C20.6984615,7.49384215 20.0661498,8.12615385 19.2861538,8.12615385 Z"/>
</svg>
