<svg xmlns="http://www.w3.org/2000/svg" width="24" height="24" viewBox="0 0 24 24">
  <path fill="#FFF" d="M21,7.7 C21,7.8 21,7.9 21,8 C21,8.1 21,8.2 21,8.3 C21,9.9 20.7,11.5 20.1,13.1 C19.5,14.7 18.7,16.1 17.5,17.4 C16.3,18.7 14.9,19.8 13.2,20.6 C11.5,21.4 9.6,21.8 7.3,21.8 C6.6,21.8 6,21.8 5.3,21.7 C4.6,21.6 4,21.5 3.4,21.3 C2.8,21.1 2.3,20.9 1.7,20.7 C1.1,20.5 0.6,20.1 0,19.8 C0.2,19.8 0.4,19.8 0.6,19.8 C0.8,19.8 1,19.8 1.2,19.8 C2.3,19.8 3.4,19.6 4.4,19.3 C5.4,19 6.4,18.4 7.2,17.8 C6.1,17.8 5.2,17.5 4.4,16.9 C3.6,16.3 2.9,15.4 2.6,14.4 C2.8,14.4 2.9,14.5 3,14.5 C3.1,14.5 3.3,14.5 3.5,14.5 C3.7,14.5 3.9,14.5 4.2,14.5 C4.5,14.5 4.6,14.4 4.8,14.4 C3.7,14.2 2.8,13.6 2.1,12.7 C1.4,11.8 1,10.8 1,9.7 C1,9.7 1,9.7 1,9.7 C1,9.7 1,9.7 1,9.6 C1.3,9.8 1.7,9.9 2,10 C2.3,10.1 2.7,10.2 3.1,10.2 C2.5,9.8 1.9,9.2 1.5,8.5 C1.1,7.8 1,7 1,6.2 C1,5.8 1.1,5.4 1.2,4.9 C1.3,4.4 1.4,4.1 1.7,3.8 C2.3,4.5 2.9,5.2 3.7,5.8 C4.5,6.4 5.2,6.9 6.1,7.3 C7,7.7 7.8,8.1 8.8,8.3 C9.8,8.5 10.7,8.7 11.7,8.8 C11.7,8.6 11.6,8.4 11.6,8.3 C11.6,8.2 11.6,7.9 11.6,7.8 C11.6,7.1 11.7,6.5 12,5.9 C12.3,5.3 12.6,4.8 13,4.4 C13.4,4 13.9,3.6 14.5,3.4 C15.1,3.1 15.7,3 16.4,3 C17.1,3 17.8,3.1 18.4,3.4 C19,3.7 19.2,4 19.7,4.4 C20.2,4.3 20.8,4.1 21.3,4 C21.8,3.9 22.3,3.6 22.8,3.3 C22.6,3.8 22.3,4.4 22,4.8 C21.7,5.2 21.2,5.6 20.7,5.9 C21.2,5.8 21.6,5.7 22.1,5.6 C22.6,5.5 23,5.3 23.4,5.1 C23.1,5.6 22.7,6 22.3,6.4 C21.9,6.8 21.5,7.3 21,7.7 Z"/>
</svg>
