<svg xmlns="http://www.w3.org/2000/svg" width="24" height="24" viewBox="0 0 24 24">
  <path fill="#FFF" fill-rule="evenodd" d="M22.4,6.9 C22.1445562,5.77442497 21.2065518,4.93262615 20.06,4.8 C17.3810329,4.54972822 14.6901594,4.44957164 12,4.5 C9.30984141,4.4496552 6.6189725,4.54981161 3.94,4.8 C2.79850238,4.93480998 1.8674961,5.77753119 1.62,6.9 C1.30413879,8.58058796 1.17668443,10.2911597 1.24,12 C1.17668443,13.7088403 1.30413879,15.419412 1.62,17.1 C1.87293066,18.2193037 2.80111217,19.059468 3.94,19.2 C6.61897386,19.4501676 9.3098416,19.5503239 12,19.5 C14.6901588,19.5503657 17.3810289,19.4502092 20.06,19.2 C21.2027209,19.0634109 22.135807,18.222432 22.39,17.1 C22.6952363,15.418215 22.8126235,13.7077166 22.74,12 C22.8059473,10.291543 22.6818525,8.58104797 22.37,6.9 L22.4,6.9 Z M9.2,15.35 L9.2,8.22 L16.04,11.79 L9.2,15.35 Z"/>
</svg>
