<svg xmlns="http://www.w3.org/2000/svg" width="24" height="24" viewBox="0 0 24 24">
  <path fill="#FFF" d="M13,1 C7,1 4,5.3 4,8.9 C4,11.06 4.82,13 6.6,13.72 C6.72370501,13.7780882 6.86737873,13.775397 6.98882157,13.7127168 C7.1102644,13.6500366 7.1956873,13.5344844 7.22,13.4 L7.48,12.4 C7.58303656,12.1526503 7.50957436,11.866964 7.3,11.7 C6.72925887,11.0032518 6.43709893,10.1196461 6.48,9.22 C6.4654617,7.58477707 7.1189928,6.01446661 8.28938703,4.87238836 C9.45978126,3.73031012 11.0456233,3.11542579 12.68,3.17 C16.08,3.17 17.95,5.24 17.95,8.01 C17.95,11.68 16.35,14.76 13.95,14.76 C13.335898,14.7744025 12.7492393,14.5058057 12.3588797,14.0315188 C11.9685201,13.5572318 11.8177629,12.9298684 11.95,12.33 C12.33,10.73 13.07,9.01 13.07,7.86 C13.1273967,7.37561698 12.9739645,6.88991538 12.6487208,6.52640771 C12.3234771,6.16290005 11.85776,5.95661126 11.37,5.96 C9.99,5.96 8.9,7.36 8.9,9.23 C8.89036684,9.91745509 9.02670205,10.5991311 9.3,11.23 L7.63,18.09 C7.35722838,19.6783743 7.35722838,21.3016257 7.63,22.89 C7.64361613,22.9546113 7.69341412,23.0054933 7.75771729,23.0204973 C7.82202046,23.0355014 7.88919486,23.011913 7.93,22.96 C8.92753343,21.7248085 9.69935927,20.3233353 10.21,18.82 L11.11,15.32 C11.7896202,16.3308111 12.9320193,16.9320738 14.15,16.92 C18.2,16.92 20.95,13.22 20.95,8.26 C20.95,4.51 17.78,1.02 12.95,1.02 L13,1 Z"/>
</svg>
